<svg width="65" height="77" viewBox="0 0 65 77" fill="none" xmlns="http://www.w3.org/2000/svg">
<circle cx="32.5" cy="44.5" r="32.5" fill="#C5F4FF"/>
<g clip-path="url(#clip0)">
<path d="M48.8721 39.4242C48.6358 39.1452 48.2888 38.9843 47.9231 38.9843H44.4705L37.6901 29.7489C37.2834 29.1946 36.5052 29.0764 35.9517 29.4823C35.3978 29.889 35.2788 30.6676 35.6851 31.2211L41.3847 38.9844H23.284L28.9836 31.2211C29.3903 30.6672 29.2705 29.889 28.717 29.4823C28.1635 29.076 27.3849 29.1954 26.9782 29.7489L20.1977 38.9844H17.0773C16.7116 38.9844 16.3646 39.1453 16.1282 39.4243C15.8919 39.7033 15.7903 40.0719 15.8504 40.4326L18.9599 59.0894C19.0598 59.6888 19.5789 60.1288 20.1866 60.1288H44.8136C45.4218 60.1288 45.9404 59.6893 46.0403 59.0894L49.1498 40.4326C49.21 40.0723 49.1084 39.7033 48.8721 39.4242ZM43.7602 57.6412H21.2402L18.5454 41.472H46.455L43.7602 57.6412Z" fill="black"/>
<path d="M32.5003 44.3741C31.8133 44.3741 31.2565 44.9309 31.2565 45.6179V53.7855C31.2565 54.4725 31.8133 55.0292 32.5003 55.0292C33.1872 55.0292 33.744 54.4729 33.744 53.7854V45.6179C33.744 44.9309 33.1872 44.3741 32.5003 44.3741Z" fill="black"/>
<path d="M38.9263 44.3741C38.2393 44.3741 37.6825 44.9309 37.6825 45.6179V53.7855C37.6825 54.4725 38.2393 55.0292 38.9263 55.0292C39.6133 55.0292 40.1701 54.4729 40.17 53.7854V45.6179C40.17 44.9309 39.6133 44.3741 38.9263 44.3741Z" fill="black"/>
<path d="M26.0739 44.3741C25.387 44.3741 24.8302 44.9309 24.8302 45.6179V53.7855C24.8302 54.4725 25.387 55.0292 26.0739 55.0292C26.7609 55.0292 27.3177 54.4729 27.3177 53.7854V45.6179C27.3177 44.9309 26.7609 44.3741 26.0739 44.3741Z" fill="black"/>
</g>
<rect x="37" width="28" height="26" rx="13" fill="#0494B4"/>
<path d="M54.12 10.916C54.12 11.332 54.008 11.708 53.784 12.044C53.568 12.372 53.284 12.596 52.932 12.716C53.348 12.844 53.704 13.08 54 13.424C54.304 13.76 54.456 14.212 54.456 14.78C54.456 15.54 54.172 16.124 53.604 16.532C53.044 16.94 52.332 17.144 51.468 17.144C50.372 17.144 49.424 16.964 48.624 16.604V15.608C49.4 16.008 50.32 16.204 51.384 16.196C52.784 16.196 53.484 15.708 53.484 14.732C53.484 13.756 52.82 13.268 51.492 13.268H50.244V12.308L51.384 12.32C51.96 12.32 52.396 12.2 52.692 11.96C52.996 11.712 53.148 11.392 53.148 11C53.148 10.576 52.98 10.244 52.644 10.004C52.308 9.756 51.832 9.632 51.216 9.632C50.368 9.632 49.552 9.84 48.768 10.256V9.272C49.52 8.888 50.38 8.696 51.348 8.696C52.18 8.696 52.848 8.9 53.352 9.308C53.864 9.716 54.12 10.252 54.12 10.916Z" fill="white"/>
<defs>
<clipPath id="clip0">
<rect x="15.8335" y="28.0182" width="33.3333" height="33.3333" fill="white"/>
</clipPath>
</defs>
</svg>
